<mxfile host="app.diagrams.net" modified="2024-02-08T18:40:56.683Z" agent="Mozilla/5.0 (Windows NT 10.0; Win64; x64) AppleWebKit/537.36 (KHTML, like Gecko) Chrome/121.0.0.0 Safari/537.36" etag="c7-0oGNCuKdPuZrlawuu" version="23.1.0" type="github">
  <diagram name="Page-1" id="FWhHeVU6lJbS_-zSvzBJ">
    <mxGraphModel dx="1059" dy="612" grid="1" gridSize="10" guides="1" tooltips="1" connect="1" arrows="1" fold="1" page="1" pageScale="1" pageWidth="850" pageHeight="1100" math="0" shadow="0">
      <root>
        <mxCell id="0" />
        <mxCell id="1" parent="0" />
        <mxCell id="s4XKWuum16mHvjN98yt2-55" value="" style="edgeStyle=orthogonalEdgeStyle;rounded=0;orthogonalLoop=1;jettySize=auto;html=1;" edge="1" parent="1" source="s4XKWuum16mHvjN98yt2-1" target="s4XKWuum16mHvjN98yt2-2">
          <mxGeometry relative="1" as="geometry" />
        </mxCell>
        <mxCell id="s4XKWuum16mHvjN98yt2-1" value="&lt;i&gt;Item List&lt;/i&gt;" style="shape=parallelogram;perimeter=parallelogramPerimeter;whiteSpace=wrap;html=1;fixedSize=1;fillColor=#f5f5f5;fontColor=#333333;strokeColor=#666666;" vertex="1" parent="1">
          <mxGeometry y="40" width="120" height="60" as="geometry" />
        </mxCell>
        <mxCell id="s4XKWuum16mHvjN98yt2-56" value="" style="edgeStyle=orthogonalEdgeStyle;rounded=0;orthogonalLoop=1;jettySize=auto;html=1;" edge="1" parent="1" source="s4XKWuum16mHvjN98yt2-2" target="s4XKWuum16mHvjN98yt2-32">
          <mxGeometry relative="1" as="geometry" />
        </mxCell>
        <mxCell id="s4XKWuum16mHvjN98yt2-2" value="Start" style="ellipse;whiteSpace=wrap;html=1;fillColor=#d5e8d4;strokeColor=#82b366;" vertex="1" parent="1">
          <mxGeometry x="160" y="30" width="120" height="80" as="geometry" />
        </mxCell>
        <mxCell id="s4XKWuum16mHvjN98yt2-19" value="" style="edgeStyle=orthogonalEdgeStyle;rounded=0;orthogonalLoop=1;jettySize=auto;html=1;" edge="1" parent="1" source="s4XKWuum16mHvjN98yt2-3" target="s4XKWuum16mHvjN98yt2-4">
          <mxGeometry relative="1" as="geometry" />
        </mxCell>
        <mxCell id="s4XKWuum16mHvjN98yt2-3" value="Set &lt;i&gt;End of Range&lt;/i&gt;&amp;nbsp;to last item in &lt;i&gt;Item List&lt;/i&gt;" style="rounded=0;whiteSpace=wrap;html=1;" vertex="1" parent="1">
          <mxGeometry x="320" y="150" width="120" height="60" as="geometry" />
        </mxCell>
        <mxCell id="s4XKWuum16mHvjN98yt2-47" style="edgeStyle=orthogonalEdgeStyle;rounded=0;orthogonalLoop=1;jettySize=auto;html=1;exitX=0.5;exitY=1;exitDx=0;exitDy=0;entryX=0.5;entryY=0;entryDx=0;entryDy=0;" edge="1" parent="1" source="s4XKWuum16mHvjN98yt2-4" target="s4XKWuum16mHvjN98yt2-5">
          <mxGeometry relative="1" as="geometry" />
        </mxCell>
        <mxCell id="s4XKWuum16mHvjN98yt2-4" value="Set&lt;i&gt;&amp;nbsp;Pass Counter&lt;/i&gt;&amp;nbsp;to length of list -1" style="rounded=0;whiteSpace=wrap;html=1;" vertex="1" parent="1">
          <mxGeometry x="320" y="250" width="120" height="60" as="geometry" />
        </mxCell>
        <mxCell id="s4XKWuum16mHvjN98yt2-48" style="edgeStyle=orthogonalEdgeStyle;rounded=0;orthogonalLoop=1;jettySize=auto;html=1;exitX=0.5;exitY=1;exitDx=0;exitDy=0;entryX=0.5;entryY=0;entryDx=0;entryDy=0;" edge="1" parent="1" source="s4XKWuum16mHvjN98yt2-5" target="s4XKWuum16mHvjN98yt2-6">
          <mxGeometry relative="1" as="geometry" />
        </mxCell>
        <mxCell id="s4XKWuum16mHvjN98yt2-5" value="" style="ellipse;whiteSpace=wrap;html=1;aspect=fixed;fillColor=#eeeeee;strokeColor=#36393d;" vertex="1" parent="1">
          <mxGeometry x="370" y="340" width="20" height="20" as="geometry" />
        </mxCell>
        <mxCell id="s4XKWuum16mHvjN98yt2-22" value="" style="edgeStyle=orthogonalEdgeStyle;rounded=0;orthogonalLoop=1;jettySize=auto;html=1;" edge="1" parent="1" source="s4XKWuum16mHvjN98yt2-6" target="s4XKWuum16mHvjN98yt2-8">
          <mxGeometry relative="1" as="geometry" />
        </mxCell>
        <mxCell id="s4XKWuum16mHvjN98yt2-52" style="edgeStyle=orthogonalEdgeStyle;rounded=0;orthogonalLoop=1;jettySize=auto;html=1;exitX=1;exitY=0.5;exitDx=0;exitDy=0;" edge="1" parent="1" source="s4XKWuum16mHvjN98yt2-6" target="s4XKWuum16mHvjN98yt2-51">
          <mxGeometry relative="1" as="geometry" />
        </mxCell>
        <mxCell id="s4XKWuum16mHvjN98yt2-6" value="Is&amp;nbsp;&lt;i&gt;&amp;nbsp;Pass Counter&lt;/i&gt;&amp;nbsp;&amp;gt; 0?" style="rhombus;whiteSpace=wrap;html=1;" vertex="1" parent="1">
          <mxGeometry x="320" y="390" width="120" height="80" as="geometry" />
        </mxCell>
        <mxCell id="s4XKWuum16mHvjN98yt2-7" value="Stop" style="ellipse;whiteSpace=wrap;html=1;fillColor=#ffcccc;strokeColor=#36393d;" vertex="1" parent="1">
          <mxGeometry x="640" y="390" width="120" height="80" as="geometry" />
        </mxCell>
        <mxCell id="s4XKWuum16mHvjN98yt2-49" style="edgeStyle=orthogonalEdgeStyle;rounded=0;orthogonalLoop=1;jettySize=auto;html=1;exitX=0.5;exitY=1;exitDx=0;exitDy=0;entryX=0.5;entryY=0;entryDx=0;entryDy=0;" edge="1" parent="1" source="s4XKWuum16mHvjN98yt2-8" target="s4XKWuum16mHvjN98yt2-9">
          <mxGeometry relative="1" as="geometry" />
        </mxCell>
        <mxCell id="s4XKWuum16mHvjN98yt2-8" value="Set&lt;i&gt;&amp;nbsp;Current Item&lt;/i&gt;&amp;nbsp;to first item in &lt;i&gt;Item List&lt;/i&gt;" style="rounded=0;whiteSpace=wrap;html=1;" vertex="1" parent="1">
          <mxGeometry x="320" y="510" width="120" height="60" as="geometry" />
        </mxCell>
        <mxCell id="s4XKWuum16mHvjN98yt2-50" style="edgeStyle=orthogonalEdgeStyle;rounded=0;orthogonalLoop=1;jettySize=auto;html=1;exitX=0.5;exitY=1;exitDx=0;exitDy=0;entryX=0.5;entryY=0;entryDx=0;entryDy=0;" edge="1" parent="1" source="s4XKWuum16mHvjN98yt2-9" target="s4XKWuum16mHvjN98yt2-10">
          <mxGeometry relative="1" as="geometry" />
        </mxCell>
        <mxCell id="s4XKWuum16mHvjN98yt2-9" value="" style="ellipse;whiteSpace=wrap;html=1;aspect=fixed;fillColor=#eeeeee;strokeColor=#36393d;" vertex="1" parent="1">
          <mxGeometry x="370" y="600" width="20" height="20" as="geometry" />
        </mxCell>
        <mxCell id="s4XKWuum16mHvjN98yt2-41" value="" style="edgeStyle=orthogonalEdgeStyle;rounded=0;orthogonalLoop=1;jettySize=auto;html=1;" edge="1" parent="1" source="s4XKWuum16mHvjN98yt2-10" target="s4XKWuum16mHvjN98yt2-34">
          <mxGeometry relative="1" as="geometry" />
        </mxCell>
        <mxCell id="s4XKWuum16mHvjN98yt2-42" value="" style="edgeStyle=orthogonalEdgeStyle;rounded=0;orthogonalLoop=1;jettySize=auto;html=1;" edge="1" parent="1" source="s4XKWuum16mHvjN98yt2-10" target="s4XKWuum16mHvjN98yt2-11">
          <mxGeometry relative="1" as="geometry" />
        </mxCell>
        <mxCell id="s4XKWuum16mHvjN98yt2-10" value="Is &lt;i&gt;Current Item&lt;/i&gt;&amp;nbsp;the &lt;i&gt;End of Range?&lt;/i&gt;&amp;nbsp;" style="rhombus;whiteSpace=wrap;html=1;" vertex="1" parent="1">
          <mxGeometry x="320" y="650" width="120" height="80" as="geometry" />
        </mxCell>
        <mxCell id="s4XKWuum16mHvjN98yt2-25" value="" style="edgeStyle=orthogonalEdgeStyle;rounded=0;orthogonalLoop=1;jettySize=auto;html=1;" edge="1" parent="1" source="s4XKWuum16mHvjN98yt2-11" target="s4XKWuum16mHvjN98yt2-13">
          <mxGeometry relative="1" as="geometry" />
        </mxCell>
        <mxCell id="s4XKWuum16mHvjN98yt2-11" value="Set &lt;i&gt;Next Item&lt;/i&gt;&amp;nbsp;to item after &lt;i&gt;Current Item&lt;/i&gt;&amp;nbsp;in &lt;i&gt;Item List&lt;/i&gt;" style="rounded=0;whiteSpace=wrap;html=1;" vertex="1" parent="1">
          <mxGeometry x="480" y="660" width="120" height="60" as="geometry" />
        </mxCell>
        <mxCell id="s4XKWuum16mHvjN98yt2-26" value="" style="edgeStyle=orthogonalEdgeStyle;rounded=0;orthogonalLoop=1;jettySize=auto;html=1;" edge="1" parent="1" source="s4XKWuum16mHvjN98yt2-13" target="s4XKWuum16mHvjN98yt2-14">
          <mxGeometry relative="1" as="geometry" />
        </mxCell>
        <mxCell id="s4XKWuum16mHvjN98yt2-38" value="" style="edgeStyle=orthogonalEdgeStyle;rounded=0;orthogonalLoop=1;jettySize=auto;html=1;" edge="1" parent="1" source="s4XKWuum16mHvjN98yt2-13" target="s4XKWuum16mHvjN98yt2-15">
          <mxGeometry relative="1" as="geometry" />
        </mxCell>
        <mxCell id="s4XKWuum16mHvjN98yt2-13" value="Does &lt;i&gt;Current Item&lt;/i&gt;&amp;nbsp;need to be swapped with &lt;i&gt;Next Item?&lt;/i&gt;" style="rhombus;whiteSpace=wrap;html=1;" vertex="1" parent="1">
          <mxGeometry x="480" y="760" width="120" height="80" as="geometry" />
        </mxCell>
        <mxCell id="s4XKWuum16mHvjN98yt2-36" value="" style="edgeStyle=orthogonalEdgeStyle;rounded=0;orthogonalLoop=1;jettySize=auto;html=1;" edge="1" parent="1" source="s4XKWuum16mHvjN98yt2-14" target="s4XKWuum16mHvjN98yt2-16">
          <mxGeometry relative="1" as="geometry" />
        </mxCell>
        <mxCell id="s4XKWuum16mHvjN98yt2-14" value="Set &lt;i&gt;Current Item &lt;/i&gt;to &lt;i&gt;Next Item&lt;/i&gt;" style="rounded=0;whiteSpace=wrap;html=1;" vertex="1" parent="1">
          <mxGeometry x="480" y="880" width="120" height="60" as="geometry" />
        </mxCell>
        <mxCell id="s4XKWuum16mHvjN98yt2-37" value="" style="edgeStyle=orthogonalEdgeStyle;rounded=0;orthogonalLoop=1;jettySize=auto;html=1;" edge="1" parent="1" source="s4XKWuum16mHvjN98yt2-15" target="s4XKWuum16mHvjN98yt2-16">
          <mxGeometry relative="1" as="geometry" />
        </mxCell>
        <mxCell id="s4XKWuum16mHvjN98yt2-15" value="Swap &lt;i&gt;Current Item&lt;/i&gt;&amp;nbsp;and &lt;i&gt;Next Item&lt;/i&gt;" style="rounded=0;whiteSpace=wrap;html=1;" vertex="1" parent="1">
          <mxGeometry x="640" y="770" width="120" height="60" as="geometry" />
        </mxCell>
        <mxCell id="s4XKWuum16mHvjN98yt2-44" style="edgeStyle=orthogonalEdgeStyle;rounded=0;orthogonalLoop=1;jettySize=auto;html=1;exitX=1;exitY=0.5;exitDx=0;exitDy=0;entryX=1;entryY=0.5;entryDx=0;entryDy=0;" edge="1" parent="1" source="s4XKWuum16mHvjN98yt2-16" target="s4XKWuum16mHvjN98yt2-9">
          <mxGeometry relative="1" as="geometry">
            <Array as="points">
              <mxPoint x="780" y="910" />
              <mxPoint x="780" y="610" />
            </Array>
          </mxGeometry>
        </mxCell>
        <mxCell id="s4XKWuum16mHvjN98yt2-16" value="" style="ellipse;whiteSpace=wrap;html=1;aspect=fixed;fillColor=#eeeeee;strokeColor=#36393d;" vertex="1" parent="1">
          <mxGeometry x="690" y="900" width="20" height="20" as="geometry" />
        </mxCell>
        <mxCell id="s4XKWuum16mHvjN98yt2-46" value="" style="edgeStyle=orthogonalEdgeStyle;rounded=0;orthogonalLoop=1;jettySize=auto;html=1;" edge="1" parent="1" source="s4XKWuum16mHvjN98yt2-32" target="s4XKWuum16mHvjN98yt2-3">
          <mxGeometry relative="1" as="geometry" />
        </mxCell>
        <mxCell id="s4XKWuum16mHvjN98yt2-54" style="edgeStyle=orthogonalEdgeStyle;rounded=0;orthogonalLoop=1;jettySize=auto;html=1;exitX=1;exitY=0.5;exitDx=0;exitDy=0;entryX=0.5;entryY=0;entryDx=0;entryDy=0;" edge="1" parent="1" source="s4XKWuum16mHvjN98yt2-32" target="s4XKWuum16mHvjN98yt2-51">
          <mxGeometry relative="1" as="geometry" />
        </mxCell>
        <mxCell id="s4XKWuum16mHvjN98yt2-32" value="Is &lt;i&gt;Item List&lt;/i&gt;&amp;nbsp;&lt;br&gt;already in order?" style="rhombus;whiteSpace=wrap;html=1;" vertex="1" parent="1">
          <mxGeometry x="320" y="30" width="120" height="80" as="geometry" />
        </mxCell>
        <mxCell id="s4XKWuum16mHvjN98yt2-43" value="" style="edgeStyle=orthogonalEdgeStyle;rounded=0;orthogonalLoop=1;jettySize=auto;html=1;" edge="1" parent="1" source="s4XKWuum16mHvjN98yt2-34" target="s4XKWuum16mHvjN98yt2-35">
          <mxGeometry relative="1" as="geometry" />
        </mxCell>
        <mxCell id="s4XKWuum16mHvjN98yt2-34" value="Subtract 1 from &lt;i&gt;Pass Counter&lt;/i&gt;" style="rounded=0;whiteSpace=wrap;html=1;" vertex="1" parent="1">
          <mxGeometry x="320" y="770" width="120" height="60" as="geometry" />
        </mxCell>
        <mxCell id="s4XKWuum16mHvjN98yt2-45" style="edgeStyle=orthogonalEdgeStyle;rounded=0;orthogonalLoop=1;jettySize=auto;html=1;exitX=0;exitY=0.5;exitDx=0;exitDy=0;entryX=0;entryY=0.5;entryDx=0;entryDy=0;" edge="1" parent="1" source="s4XKWuum16mHvjN98yt2-35" target="s4XKWuum16mHvjN98yt2-5">
          <mxGeometry relative="1" as="geometry" />
        </mxCell>
        <mxCell id="s4XKWuum16mHvjN98yt2-35" value="Set &lt;i&gt;End of Range &lt;/i&gt;to one item closer to start of list" style="rounded=0;whiteSpace=wrap;html=1;" vertex="1" parent="1">
          <mxGeometry x="320" y="870" width="120" height="60" as="geometry" />
        </mxCell>
        <mxCell id="s4XKWuum16mHvjN98yt2-53" style="edgeStyle=orthogonalEdgeStyle;rounded=0;orthogonalLoop=1;jettySize=auto;html=1;exitX=1;exitY=0.5;exitDx=0;exitDy=0;entryX=0;entryY=0.5;entryDx=0;entryDy=0;" edge="1" parent="1" source="s4XKWuum16mHvjN98yt2-51" target="s4XKWuum16mHvjN98yt2-7">
          <mxGeometry relative="1" as="geometry" />
        </mxCell>
        <mxCell id="s4XKWuum16mHvjN98yt2-51" value="" style="ellipse;whiteSpace=wrap;html=1;aspect=fixed;fillColor=#eeeeee;strokeColor=#36393d;" vertex="1" parent="1">
          <mxGeometry x="530" y="420" width="20" height="20" as="geometry" />
        </mxCell>
        <mxCell id="s4XKWuum16mHvjN98yt2-57" value="Yes" style="text;html=1;strokeColor=none;fillColor=none;align=center;verticalAlign=middle;whiteSpace=wrap;rounded=0;" vertex="1" parent="1">
          <mxGeometry x="430" y="50" width="60" height="30" as="geometry" />
        </mxCell>
        <mxCell id="s4XKWuum16mHvjN98yt2-58" value="Yes" style="text;html=1;strokeColor=none;fillColor=none;align=center;verticalAlign=middle;whiteSpace=wrap;rounded=0;" vertex="1" parent="1">
          <mxGeometry x="430" y="410" width="60" height="30" as="geometry" />
        </mxCell>
        <mxCell id="s4XKWuum16mHvjN98yt2-60" value="Yes" style="text;html=1;strokeColor=none;fillColor=none;align=center;verticalAlign=middle;whiteSpace=wrap;rounded=0;" vertex="1" parent="1">
          <mxGeometry x="365" y="730" width="60" height="30" as="geometry" />
        </mxCell>
        <mxCell id="s4XKWuum16mHvjN98yt2-61" value="Yes" style="text;html=1;strokeColor=none;fillColor=none;align=center;verticalAlign=middle;whiteSpace=wrap;rounded=0;" vertex="1" parent="1">
          <mxGeometry x="590" y="780" width="60" height="30" as="geometry" />
        </mxCell>
        <mxCell id="s4XKWuum16mHvjN98yt2-62" value="No" style="text;html=1;strokeColor=none;fillColor=none;align=center;verticalAlign=middle;whiteSpace=wrap;rounded=0;" vertex="1" parent="1">
          <mxGeometry x="365" y="110" width="60" height="30" as="geometry" />
        </mxCell>
        <mxCell id="s4XKWuum16mHvjN98yt2-63" value="No" style="text;html=1;strokeColor=none;fillColor=none;align=center;verticalAlign=middle;whiteSpace=wrap;rounded=0;" vertex="1" parent="1">
          <mxGeometry x="365" y="470" width="60" height="30" as="geometry" />
        </mxCell>
        <mxCell id="s4XKWuum16mHvjN98yt2-64" value="No" style="text;html=1;strokeColor=none;fillColor=none;align=center;verticalAlign=middle;whiteSpace=wrap;rounded=0;" vertex="1" parent="1">
          <mxGeometry x="430" y="670" width="60" height="30" as="geometry" />
        </mxCell>
        <mxCell id="s4XKWuum16mHvjN98yt2-68" value="No" style="text;html=1;strokeColor=none;fillColor=none;align=center;verticalAlign=middle;whiteSpace=wrap;rounded=0;" vertex="1" parent="1">
          <mxGeometry x="520" y="840" width="60" height="30" as="geometry" />
        </mxCell>
      </root>
    </mxGraphModel>
  </diagram>
</mxfile>
